<!-- <?xml version="1.0" encoding="UTF-8" standalone="no"?>
<!DOCTYPE svg PUBLIC "-//W3C//DTD SVG 20010904//EN"
              "http://www.w3.org/TR/2001/REC-SVG-20010904/DTD/svg10.dtd"> -->

<svg xmlns="http://www.w3.org/2000/svg"
     width="1rem" height="1rem"
     viewBox="0 0 300 286">
  <g>
      <path id="check-icon"
        stroke="black" stroke-width="1"
        d="M 176.47,114.00
           C 190.51,95.29 206.65,77.69 223.17,61.17
             223.17,61.17 235.00,50.00 235.00,50.00
             235.00,50.00 283.00,7.28 283.00,7.28
             288.20,2.82 301.26,-6.79 299.89,8.00
             299.20,15.40 285.20,29.84 280.08,36.00
             280.08,36.00 228.88,101.00 228.88,101.00
             202.72,135.31 174.47,181.11 158.01,221.00
             158.01,221.00 143.42,262.00 143.42,262.00
             143.42,262.00 137.00,286.00 137.00,286.00
             131.86,281.65 128.44,275.50 124.65,270.00
             124.65,270.00 107.72,248.00 107.72,248.00
             84.27,220.68 65.54,202.91 36.00,182.28
             36.00,182.28 6.10,163.67 6.10,163.67
             2.63,160.49 -0.49,154.91 0.16,150.04
             0.86,144.81 4.97,145.16 9.00,146.16
             9.00,146.16 34.00,155.80 34.00,155.80
             58.67,165.67 83.92,176.16 105.00,192.67
             115.41,200.82 117.46,204.05 126.00,213.00
             138.29,176.21 153.09,145.18 176.47,114.00 Z" />
  </g>
</svg>
