<svg xmlns="http://www.w3.org/2000/svg" viewBox="0 0 77.83 79.76">
  <title>Asset 4</title>
  <g id="Layer_2" data-name="Layer 2">
    <g id="Layer_1-2" data-name="Layer 1">
      <g>
        <g>
          <path d="M59.91,12.47a2.6,2.6,0,0,0-2-4.2H48.18a5.48,5.48,0,0,0-2.35-4.56l.76-1.95a1.29,1.29,0,0,0-2.4-.94l-.78,2a5.44,5.44,0,0,0-5.71,3.4L36.9,8.27H2.6a2.6,2.6,0,0,0-2,4.2L28.94,48.59V68.82a8.36,8.36,0,0,1-8.35,8.35H16.45a1.29,1.29,0,0,0,0,2.58H44a1.29,1.29,0,0,0,0-2.58H39.88a8.36,8.36,0,0,1-8.35-8.35V48.59L59.91,12.47ZM36.65,24.63a5.78,5.78,0,0,1,2.71.58,8.29,8.29,0,0,0,3.73.79,8.11,8.11,0,0,0,3.41-.66L30.23,46.06,14,25.35a8.09,8.09,0,0,0,3.4.66,8.27,8.27,0,0,0,3.72-.79,5.75,5.75,0,0,1,2.7-.58,5.76,5.76,0,0,1,2.7.58,8.27,8.27,0,0,0,3.72.79,8.28,8.28,0,0,0,3.73-.79,5.77,5.77,0,0,1,2.71-.58ZM40.12,7.14A2.84,2.84,0,0,1,45.6,8.27H39.67ZM2.6,10.85H57.87s0,0,0,0L49.09,22.06a8.2,8.2,0,0,0-3.29.78,6.57,6.57,0,0,1-5.42,0,9,9,0,0,0-1.82-.61l2.63-6.68a1.29,1.29,0,0,0-2.4-.94l-2.94,7.48a8.18,8.18,0,0,0-2.91.76,5.77,5.77,0,0,1-2.71.58,5.76,5.76,0,0,1-2.7-.58A8.27,8.27,0,0,0,23.79,22a8.27,8.27,0,0,0-3.72.79,5.75,5.75,0,0,1-2.7.58,5.76,5.76,0,0,1-2.7-.58,8.18,8.18,0,0,0-3.29-.78L2.58,10.87s0,0,0,0ZM32.83,77.17H27.64a11,11,0,0,0,2.6-3.2A11,11,0,0,0,32.83,77.17Z" style="fill: #9fb2c9"/>
          <path d="M33.36,28.38,29,39.41a1.29,1.29,0,1,0,2.4.94l4.33-11a1.29,1.29,0,1,0-2.4-.94Z" style="fill: #9fb2c9"/>
        </g>
        <polyline points="26.42 43.97 42.72 61.48 74.33 28.69" style="fill: none;stroke: #ff2929;stroke-linecap: round;stroke-linejoin: round;stroke-width: 7px"/>
      </g>
    </g>
  </g>
</svg>
