<svg xmlns="http://www.w3.org/2000/svg" viewBox="0 0 47.07 46.94">
  <title>Asset 5</title>
  <g id="Layer_2" data-name="Layer 2">
    <g id="Layer_1-2" data-name="Layer 1">
      <g>
        <path d="M6.1,5.25H0V.36H17.76V5.25H11.7V22.1H6.1Z" style="fill: #ff2929"/>
        <path d="M30.25,0c6.65,0,11.6,4.63,11.6,11.24s-5,11.24-11.6,11.24S18.61,17.86,18.61,11.24,23.6,0,30.25,0Zm0,5c-3.62,0-5.93,2.74-5.93,6.29s2.31,6.29,5.93,6.29,5.9-2.77,5.9-6.29S33.83,5,30.25,5Z" style="fill: #ff2929"/>
        <path d="M1.24,24.81h9.13c6.84,0,11.77,4.11,11.77,10.85S17.21,46.54,10.4,46.54H1.24Zm9.13,16.85a5.77,5.77,0,0,0,6-6c0-3.36-2-6-6-6H6.84v12Z" style="fill: #ff2929"/>
        <path d="M35.46,24.45c6.65,0,11.6,4.63,11.6,11.24s-5,11.24-11.6,11.24S23.83,42.31,23.83,35.69,28.81,24.45,35.46,24.45Zm0,5c-3.62,0-5.93,2.74-5.93,6.29S31.85,42,35.46,42s5.9-2.77,5.9-6.29S39,29.4,35.46,29.4Z" style="fill: #ff2929"/>
      </g>
    </g>
  </g>
</svg>
